<svg xmlns="http://www.w3.org/2000/svg" width="1200" height="700" viewBox="0 0 1200 700">
  <rect width="1200" height="700" fill="#f5f7fb" />
  <text x="600" y="54" text-anchor="middle" font-family="Arial, Helvetica, sans-serif" font-size="32" fill="#1f2731">
    Operations Root Cause Analytics with NLP
  </text>
  <text x="600" y="84" text-anchor="middle" font-family="Arial, Helvetica, sans-serif" font-size="18" fill="#4f5d70">
    Architecture Overview (Aviation as First Demonstration Domain)
  </text>

  <rect x="70" y="150" width="220" height="110" rx="8" fill="#ffffff" stroke="#cad4e2" />
  <text x="180" y="195" text-anchor="middle" font-family="Arial, Helvetica, sans-serif" font-size="20" fill="#1f2731">Analyst UI</text>
  <text x="180" y="220" text-anchor="middle" font-family="Arial, Helvetica, sans-serif" font-size="14" fill="#4f5d70">Single + Batch Workflows</text>

  <rect x="340" y="150" width="250" height="110" rx="8" fill="#ffffff" stroke="#cad4e2" />
  <text x="465" y="195" text-anchor="middle" font-family="Arial, Helvetica, sans-serif" font-size="20" fill="#1f2731">FastAPI Routes</text>
  <text x="465" y="220" text-anchor="middle" font-family="Arial, Helvetica, sans-serif" font-size="14" fill="#4f5d70">/predict, /predict-batch, /model-info</text>

  <rect x="640" y="150" width="220" height="110" rx="8" fill="#ffffff" stroke="#cad4e2" />
  <text x="750" y="195" text-anchor="middle" font-family="Arial, Helvetica, sans-serif" font-size="20" fill="#1f2731">Domain Registry</text>
  <text x="750" y="220" text-anchor="middle" font-family="Arial, Helvetica, sans-serif" font-size="14" fill="#4f5d70">Implemented + Planned Domains</text>

  <rect x="910" y="150" width="220" height="110" rx="8" fill="#ffffff" stroke="#cad4e2" />
  <text x="1020" y="195" text-anchor="middle" font-family="Arial, Helvetica, sans-serif" font-size="20" fill="#1f2731">Model Loader</text>
  <text x="1020" y="220" text-anchor="middle" font-family="Arial, Helvetica, sans-serif" font-size="14" fill="#4f5d70">Artifacts + Metadata</text>

  <rect x="330" y="350" width="260" height="120" rx="8" fill="#ffffff" stroke="#cad4e2" />
  <text x="460" y="394" text-anchor="middle" font-family="Arial, Helvetica, sans-serif" font-size="20" fill="#1f2731">Predictor Service</text>
  <text x="460" y="420" text-anchor="middle" font-family="Arial, Helvetica, sans-serif" font-size="14" fill="#4f5d70">Threshold + Top-k Filtering</text>
  <text x="460" y="442" text-anchor="middle" font-family="Arial, Helvetica, sans-serif" font-size="14" fill="#4f5d70">Review Flags</text>

  <rect x="640" y="350" width="260" height="120" rx="8" fill="#ffffff" stroke="#cad4e2" />
  <text x="770" y="394" text-anchor="middle" font-family="Arial, Helvetica, sans-serif" font-size="20" fill="#1f2731">Explanation Service</text>
  <text x="770" y="420" text-anchor="middle" font-family="Arial, Helvetica, sans-serif" font-size="14" fill="#4f5d70">Contributory-Factor Cue Terms</text>

  <rect x="480" y="540" width="240" height="100" rx="8" fill="#ffffff" stroke="#cad4e2" />
  <text x="600" y="582" text-anchor="middle" font-family="Arial, Helvetica, sans-serif" font-size="20" fill="#1f2731">Structured Output</text>
  <text x="600" y="608" text-anchor="middle" font-family="Arial, Helvetica, sans-serif" font-size="14" fill="#4f5d70">Analyst Review Support</text>

  <line x1="290" y1="205" x2="340" y2="205" stroke="#6b7a8d" stroke-width="2" />
  <line x1="590" y1="205" x2="640" y2="205" stroke="#6b7a8d" stroke-width="2" />
  <line x1="860" y1="205" x2="910" y2="205" stroke="#6b7a8d" stroke-width="2" />
  <line x1="465" y1="260" x2="465" y2="350" stroke="#6b7a8d" stroke-width="2" />
  <line x1="1020" y1="260" x2="770" y2="350" stroke="#6b7a8d" stroke-width="2" />
  <line x1="590" y1="410" x2="640" y2="410" stroke="#6b7a8d" stroke-width="2" />
  <line x1="600" y1="470" x2="600" y2="540" stroke="#6b7a8d" stroke-width="2" />
</svg>
